<?xml version="1.0" encoding="utf-8"?>
<!-- Generator: Adobe Illustrator 23.0.0, SVG Export Plug-In . SVG Version: 6.00 Build 0)  -->
<svg version="1.1" id="Layer_1" xmlns="http://www.w3.org/2000/svg" xmlns:xlink="http://www.w3.org/1999/xlink" x="0px" y="0px"
	 viewBox="0 0 800 500" style="enable-background:new 0 0 800 500;" xml:space="preserve">
<g>
	<path fill="#ffffff" id="welcome" d="M164.23,335.21c-9.29,8-14.47,16.09-15.51,24.25c0,11.29,6.49,21.37,19.47,30.25
		c12.98,8.9,27.45,15.8,43.44,20.68c11.86,3.47,29.19,5.2,52.05,5.2c17.21,0,33.39-1.55,48.52-4.67
		c9.98-2.45,22.15-6.27,36.54-11.41c14.39-5.14,23.78-8.33,28.21-9.57c0.75,0,1.12,1.37,1.12,4.1c-12.21,6.61-22.25,11.59-30.05,15
		c-1.59,0.76-7.19,2.8-16.78,6.14c-9.59,3.37-20.92,6.55-33.98,9.57c-13.08,3-26.19,4.76-39.36,5.25c-11.76,0-25.88-1.1-42.39-3.27
		c-16.49-2.16-28.74-5.31-36.74-9.45c-9.59-4.8-16.45-8.43-20.58-10.88c-4.16-2.45-8.41-6.47-12.78-12.06
		c-4.37-5.61-7.12-12.84-8.25-21.68c0-17.29,0.73-29.41,2.24-36.37c5.1-12.41,10.67-21.62,16.8-27.66
		c-1.69-4.69-4.18-16.78-7.41-36.29c-3.25-19.51-5.57-35.52-6.98-48.01c-1.59-8.65-3.26-17.55-5.02-26.74
		c-1.73-9.16-2.98-17.96-3.71-26.43c0-10.53,1.92-20.15,5.76-28.92c4.43,10.92,7.92,27.11,10.45,48.54
		c3.31,26.41,7.14,51.05,11.57,73.89c1.59,8.39,2.92,15.19,4.02,20.45c1.06,5.27,1.84,9.1,2.33,11.43
		c3.57-6.78,17.8-17.39,42.72-31.88c1.33-0.73,2.35-5.23,3.04-13.47c0.69-8.21,1.51-15.45,2.41-21.72
		c0.88-6.25,3.1-13.74,6.69-22.49c1.77-4.51,9.55-13.43,23.27-26.78c13.72-13.35,20.96-21.39,21.72-24.13
		c-1.14-8.29-1.69-13.45-1.69-15.51c0.94-3.96,3.2-8.67,6.78-14.16c3.57-5.51,5.92-9.47,7.04-11.92
		c3.02,24.62,5.59,45.97,7.76,64.01c2.16,18.06,5.37,35.09,9.59,51.07c1.41,5.19,4.61,9.14,9.59,11.92
		c4.98,2.78,9.88,4.17,14.67,4.17c1.59,0,3.14-0.37,4.65-1.14c6.76-5.43,11.98-15.27,15.66-29.48h2.82c1.51,1.43,2.47,4.74,2.9,9.96
		c0.41,5.2,0.63,9.43,0.63,12.61c-4.22,22.76-10.39,36.62-18.47,41.6c-0.78,0.78-4.04,1.14-9.88,1.14
		c-13.84,0-23.66-6.53-29.48-19.62c-3.67-8.47-6.45-16.8-8.33-25.04c-1.88-8.21-3.8-18.74-5.72-31.58
		c-1.92-12.84-3.41-22.27-4.45-28.27h-1.67c-7.35,13.8-16.25,25.76-26.66,35.8c-9.7,9.02-16.04,17.12-19.06,24.27
		c0,3,0.2,4.51,0.57,4.51c9.96-5.35,16.33-9.78,19.04-13.27c2.74-3.47,6.02-5.2,9.86-5.2c1.9,0,3.45,1.16,4.67,3.53
		c0,17.11-2.73,29.99-8.18,38.64c-5.27,8.08-10.88,14.41-16.86,18.96c-5.96,4.57-15.02,10.74-27.15,18.49
		c-12.12,7.76-21.31,14.37-27.5,19.8c0,4.82,4.02,10.98,12.11,18.49c8.1,7.51,18.31,13.31,30.62,17.35
		c4.61,1.51,10.57,2.24,17.92,2.24c11.94,0,24.7-2.16,38.21-6.55c13.55-4.39,23.51-8.14,29.92-11.35
		c31.39-15.15,59.89-36.72,85.48-64.74c1.76-1.7,13.9-17.68,36.37-47.95c4.25-4.98,8.08-7.49,11.55-7.49
		c1.33,0.39,2.21,1.16,2.69,2.35c0.47,1.16,0.98,3.06,1.55,5.72c0.55,2.61,1.06,4.59,1.55,5.92c4.9,9.59,14.15,14.37,27.78,14.37
		c3.76,0,9.31-2.45,16.64-7.33c7.35-4.88,11.02-8.59,11.02-11.14c-3.67-10.63-5.98-20.84-6.92-30.6
		c-0.75-9.69-1.12-23.76-1.12-42.17c1.22-10.37,4.65-17.76,10.29-22.23c5.63-4.47,10.67-7.08,15.11-7.82
		c24.62-1.04,47.56-6.25,68.83-15.68c4.41-2.16,11.51-7.31,21.29-15.51h5.78c0,3.49-0.37,8.94-1.12,16.37
		c-0.75,7.43-1.12,13.1-1.12,17.06c-22,12.78-38.78,29.35-50.37,49.64c-12.94,22.21-25.84,45.52-38.64,69.97
		c0,2.45,0.8,6.29,2.35,11.49c1.55,5.23,2.33,9.1,2.33,11.64c0,1.69-0.61,3.45-1.84,5.23c-0.78,0.75-1.51,1.12-2.27,1.12
		c-0.94,0-2.55-2.21-4.8-6.63c-2.24-4.41-4.12-6.63-5.63-6.63c-2.55,0-5.23,1.55-8.04,4.65c-2.82,3.1-6.12,5.8-9.88,8.04
		c-7.14,3.49-14.04,5.23-20.74,5.23c-8.27-1.02-15.58-3.76-21.92-8.16c-6.35-4.43-10.98-10.21-13.9-17.35
		c-0.37-0.78-1.73-1.14-4.1-1.14c-5.63,5.35-11.14,11.76-16.55,19.23c-5.41,7.47-12.02,16.47-19.82,26.98
		c-4.51,5.35-17.02,17.84-37.52,37.48c-23.41,20.68-49.8,35.88-79.11,45.66c-10.74,3.47-24.78,5.2-42.19,5.2
		c-15.33,0-26.7-2.28-34.13-6.88c-2.72-1.8-5.78-3.77-9.1-5.98c-3.33-2.21-7.25-5.43-11.7-9.63c-4.47-4.25-8.57-9.31-12.35-15.21
		C168.94,348.72,166.1,342.23,164.23,335.21z M291.31,82.17c6.21-5.16,15.63-15.62,28.29-31.31c12.66-15.69,19.21-23.55,19.68-23.55
		c1.02,0.28,1.9,0.84,2.61,1.61c0.69,0.82,1.18,1.45,1.47,1.92c-0.47,0.94-2.41,4.74-5.84,11.43c-3.45,6.67-6.61,13.08-9.53,19.25
		c-2.92,6.14-6.63,14.41-11.13,24.76c-8.29,18.51-16.19,33.7-23.72,45.56c-0.57,1.2-1.35,1.84-2.39,1.84
		c-0.75,0-1.12-2.94-1.12-8.76c3-7.98,5.14-13.49,6.41-16.51c1.27-3,2.9-6.72,4.86-11.14c1.98-4.41,3.82-8.7,5.51-12.82
		c-4.9,2.9-11.06,7.84-18.47,14.82c-7.45,6.94-13.96,12.45-19.61,16.49c-13.92,9.21-24.35,15.19-31.31,17.92
		c-2.35,0.74-5.02,1.59-8.04,2.53c-3,0.94-6.49,1.41-10.43,1.41c0-1.22,0.59-2.35,1.78-3.39c1.16-1.04,2.57-2,4.21-2.9
		c1.65-0.88,3.14-1.65,4.45-2.33c13.74-7.33,24.82-14.45,33.23-21.37C270.61,100.72,280.33,92.23,291.31,82.17z M278.06,324.18
		c-4.8-2.16-10.82-4.9-18.07-8.25c-7.23-3.33-10.86-5.18-10.86-5.55c0-0.28,2.24-3.88,6.69-10.8c4.47-6.92,8.21-12.57,11.23-17
		l28.9,11.58L278.06,324.18z M395.98,142.24c3-3.26,8.86-11.23,17.55-23.82c8.7-12.6,13.98-18.9,15.88-18.9
		c0,10.63-7.49,25.25-22.43,43.86c-6.21,7.25-15.29,14.25-27.21,21.02c-11.96,6.78-19.68,10.15-23.15,10.15
		c1.8-3.1,8.33-8.76,19.6-17C387.53,149.34,394.1,144.24,395.98,142.24z M417.27,145.79c0,8.16-6.35,18.94-19.04,32.29
		c-3.76,4.12-9.18,8.06-16.29,11.78c-7.1,3.72-13.04,5.57-17.84,5.57c0-0.75,4.02-3.92,12.06-9.51
		c8.04-5.59,13.86-10.33,17.41-14.19c4.9-4.72,9.88-10.2,14.96-16.51C413.61,148.93,416.51,145.79,417.27,145.79z M610.79,209.23
		c-3.02-6.78-4.51-12.92-4.51-18.47c0-5.53,1.33-11.7,3.94-18.47c0.57-1.1,1.76-1.67,3.53-1.67c0.65,0,2.45,0.18,5.37,0.57
		c2.9,0.37,5.35,0.55,7.33,0.55c4.43,0,8.47-0.75,12.12-2.27c9.49-4.12,16.64-7.98,21.45-11.55c1.67-0.86,2.43-1.26,2.24-1.26
		c3.1,0,4.65,4.45,4.65,13.39c-0.37,8.45-1.53,14.88-3.47,19.25c-1.92,4.37-5.39,9.2-10.41,14.45c-5.04,5.29-8.31,8.84-9.8,10.72
		c-6.69,8.65-16.27,17.72-28.72,27.23c-12.47,9.51-23.17,17.76-32.11,24.82c-8.92,7.06-14.29,13.39-16.06,19.04
		c-3.21,9.96-6.96,25-11.29,45.13c-4.33,20.13-6.72,31.07-7.18,32.86c-0.86,4.04-3.23,9.41-7.12,16.08
		c-3.9,6.68-9.86,13.23-17.84,19.68c-8,6.45-17.96,11.06-29.9,13.9c-2.08,0.55-4.92,1.33-8.53,2.27c-3.63,0.94-9.45,1.76-17.49,2.45
		c-8.04,0.71-18.84,1.06-32.37,1.06c-4.43,0-7.1-1.55-8.02-4.65c6.49-0.29,16.62-2.86,30.37-7.74c13.8-4.88,23.49-8.88,29.15-11.98
		c6.66-4.14,12.19-7.92,16.57-11.35c4.37-3.43,7.96-6.74,10.78-9.88c2.82-3.14,5.39-6.49,7.67-10c2.31-3.51,5.06-7.74,8.25-12.61
		c4.16-6.02,7.43-13.8,9.88-23.33c2.45-9.53,4.82-20.8,7.12-33.78c2.31-12.94,3.98-21.08,5-24.37c1.51-5.63,7.39-14.57,17.64-26.78
		C579.27,230.27,593.19,219.19,610.79,209.23z M467.05,366.35l-39.35-14.94l19.06-28.33l39.91,17.88L467.05,366.35z M549,161.85
		c-3.76-0.76-7-1.12-9.74-1.12c-7.33,0-14.09,1.47-20.25,4.37c-6.14,2.92-9.84,7.24-11.06,12.98c-0.73,4.7-1.12,8.94-1.12,12.7
		c0,7.14,0.59,13.76,1.78,19.8c1.16,6.08,2.33,9.1,3.45,9.1c3.37-1.96,9.41-10.9,18.13-26.78C538.88,177,545.15,166.65,549,161.85z"
		/>
</g>

</svg>

